<svg xmlns="http://www.w3.org/2000/svg" height="20px" viewBox="0 -960 960 960" width="20px" fill="#000000"><path d="M480-96q-108 0-174-31.5T240-210q0-26 19.5-47.5T315-295l58 55q-15 5-32 12.5T312-209q8 14 62 27.5T480-168q56 0 109-13.5t59-30.5q-13-9-30.5-16.5T585-241l58-56q38 16 57.5 38.5T720-210q0 51-66 82.5T480-96Zm0-120q-133-98-198.5-193.5T216-594q0-66 24-116.5t62-84.5q38-34 85-51.5t93-17.5q46 0 93 17.5t85 51.5q38 34 62 84.5T744-594q0 89-65.5 184.5T480-216Zm0-312q30 0 51-21t21-51q0-30-21-51t-51-21q-30 0-51 21.5T408-600q0 29 21 50.5t51 21.5Z"/></svg>